<svg xmlns="http://www.w3.org/2000/svg" xmlns:xlink="http://www.w3.org/1999/xlink" width="1024" height="1024" viewBox="0 0 100 100" xmlns:c2pa="http://c2pa.org/manifest"><metadata><c2pa:manifest>AAAWgmp1bWIAAAAeanVtZGMycGEAEQAQgAAAqgA4m3EDYzJwYQAAABZcanVtYgAAAEdqdW1kYzJtYQARABCAAACqADibcQN1cm46YzJwYTo2NzhkMDZhYi1kMzYwLTQyMDUtYjhkZi1iYzg4MDUwOGQ5NjEAAAADl2p1bWIAAAApanVtZGMyYXMAEQAQgAAAqgA4m3EDYzJwYS5hc3NlcnRpb25zAAAAALxqdW1iAAAARGp1bWRjYm9yABEAEIAAAKoAOJtxE2MycGEuaW5ncmVkaWVudC52MwAAAAAYYzJzaH8dIooqhDHUz2EF6RZvdZMAAABwY2JvcqNpZGM6Zm9ybWF0bWltYWdlL3N2Zyt4bWxqaW5zdGFuY2VJRHgseG1wOmlpZDphZjM4YWNjZS1hN2Y2LTQ3YjktOGQ2NC04NTJjZDI3MDEzNmVscmVsYXRpb25zaGlwaHBhcmVudE9mAAAB4mp1bWIAAABBanVtZGNib3IAEQAQgAAAqgA4m3ETYzJwYS5hY3Rpb25zLnYyAAAAABhjMnNoB8hA2oCXPiUE6PQKYcfWWAAAAZljYm9yomdhY3Rpb25zgqJmYWN0aW9ua2MycGEub3BlbmVkanBhcmFtZXRlcnOha2luZ3JlZGllbnRzgaJjdXJseC1zZWxmI2p1bWJmPWMycGEuYXNzZXJ0aW9ucy9jMnBhLmluZ3JlZGllbnQudjNkaGFzaFgghBkIFd63Stb4KOgjWRCCtjRR1PjNSmpEf2ejTq42XkmkZmFjdGlvbngdY29tLmFudGhyb3BpYy5jbGF1ZGUucHJvdmlkZWRqcGFyYW1ldGVyc6F4H2NvbS5hbnRocm9waWMub3JpZ2luLWNvbmZpZGVuY2VndW5rbm93bmtkZXNjcmlwdGlvbnhmQ2xhdWRlIHByb3ZpZGVkIHRoaXMgZmlsZSBhdCB0aGUgcmVxdWVzdCBvZiBhIHVzZXIgYW5kIG1heSBoYXZlIGNyZWF0ZWQgb3IgbW9kaWZpZWQgdGhlIGZpbGUgY29udGVudHMubXNvZnR3YXJlQWdlbnShZG5hbWVmQ2xhdWRlcmFsbEFjdGlvbnNJbmNsdWRlZPUAAADIanVtYgAAAEBqdW1kY2JvcgARABCAAACqADibcRNjMnBhLmhhc2guZGF0YQAAAAAYYzJzaJHIVB4fK4F5QfQkM+uwFe4AAACAY2JvcqVjYWxnZnNoYTI1NmNwYWRNAAAAAAAAAAAAAAAAAGRoYXNoWCB9b5T5ihjoWYd+0Pf+gnQAI1F0paHbOxwxxlMWRcjlZWRuYW1lbmp1bWJmIG1hbmlmZXN0amV4Y2x1c2lvbnOBomVzdGFydBjDZmxlbmd0aBkeBAAAAj5qdW1iAAAAJ2p1bWRjMmNsABEAEIAAAKoAOJtxA2MycGEuY2xhaW0udjIAAAACD2Nib3KlY2FsZ2ZzaGEyNTZpc2lnbmF0dXJleE1zZWxmI2p1bWJmPS9jMnBhL3VybjpjMnBhOjY3OGQwNmFiLWQzNjAtNDIwNS1iOGRmLWJjODgwNTA4ZDk2MS9jMnBhLnNpZ25hdHVyZWppbnN0YW5jZUlEeCx4bXA6aWlkOjZlNjFlZTExLTc3ODgtNDkzZS05MTJkLTE4OTg3MzI3OWRhNXJjcmVhdGVkX2Fzc2VydGlvbnODomN1cmx4LXNlbGYjanVtYmY9YzJwYS5hc3NlcnRpb25zL2MycGEuaW5ncmVkaWVudC52M2RoYXNoWCCEGQgV3rdK1vgo6CNZEIK2NFHU+M1KakR/Z6NOrjZeSaJjdXJseCpzZWxmI2p1bWJmPWMycGEuYXNzZXJ0aW9ucy9jMnBhLmFjdGlvbnMudjJkaGFzaFggi7WNa/w3A1HGJ+aiWk/4nREW0BAnQVpd7JsslmVARF+iY3VybHgpc2VsZiNqdW1iZj1jMnBhLmFzc2VydGlvbnMvYzJwYS5oYXNoLmRhdGFkaGFzaFggUke6JYZACkr012qevCDBaKyka0p/dPUbUKeBnaBdRdx0Y2xhaW1fZ2VuZXJhdG9yX2luZm+jZG5hbWVvQW50aHJvcGljIEZpbGVzZ3ZlcnNpb25lMS4wLjBrc3BlY1ZlcnNpb25lMi40LjAAABA4anVtYgAAAChqdW1kYzJjcwARABCAAACqADibcQNjMnBhLnNpZ25hdHVyZQAAABAIY2JvctKEWQISogEmGCFZAgowggIGMIIBjaADAgECAhRA5aAK7sI50L64g/oGQgU9Z1UTADAKBggqhkjOPQQDAzBJMRcwFQYDVQQKEw5BbnRocm9waWMsIFBCQzEuMCwGA1UEAxMlQW50aHJvcGljIENvbnRlbnQgQ3JlZGVudGlhbHMgUm9vdCBDQTAeFw0yNjA4MDcxODQzNTZaFw0yODA4MDYxOTQzNTZaMEQxFzAVBgNVBAoTDkFudGhyb3BpYywgUEJDMSkwJwYDVQQDEyBBbnRocm9waWMgQ2xhdWRlIENvbnRlbnQgU2lnbmluZzBZMBMGByqGSM49AgEGCCqGSM49AwEHA0IABJh6CmvLUBgFFNU0vUKlOVtE6djd17L5SuwX0LemFisBM3dkd/3cyjxFA3Qo5S46fX0/ihY0VZ7mfb9KF703t5OjWDBWMA4GA1UdDwEB/wQEAwIHgDAVBgNVHSUEDjAMBgorBgEEAYPoXgIBMAwGA1UdEwEB/wQCMAAwHwYDVR0jBBgwFoAUzlHiBIFOZFsj+OPEz5o+nMHXXMIwCgYIKoZIzj0EAwMDZwAwZAIwMXMdFJ4BetLLVY7ORuE9noqbbAZOZn/aArXyTwFAZfKrPzxF2vPoJNf1+UCdg1XGAjBwX1zd9WGqYkqmL5SFqw1QySjr1zJfpJM9+1rdDwSPLMOPOjKuiXjoU/pUUeG9RwmhY3BhZFkNngAAAAAAAAAAAAAAAAAAAAAAAAAAAAAAAAAAAAAAAAAAAAAAAAAAAAAAAAAAAAAAAAAAAAAAAAAAAAAAAAAAAAAAAAAAAAAAAAAAAAAAAAAAAAAAAAAAAAAAAAAAAAAAAAAAAAAAAAAAAAAAAAAAAAAAAAAAAAAAAAAAAAAAAAAAAAAAAAAAAAAAAAAAAAAAAAAAAAAAAAAAAAAAAAAAAAAAAAAAAAAAAAAAAAAAAAAAAAAAAAAAAAAAAAAAAAAAAAAAAAAAAAAAAAAAAAAAAAAAAAAAAAAAAAAAAAAAAAAAAAAAAAAAAAAAAAAAAAAAAAAAAAAAAAAAAAAAAAAAAAAAAAAAAAAAAAAAAAAAAAAAAAAAAAAAAAAAAAAAAAAAAAAAAAAAAAAAAAAAAAAAAAAAAAAAAAAAAAAAAAAAAAAAAAAAAAAAAAAAAAAAAAAAAAAAAAAAAAAAAAAAAAAAAAAAAAAAAAAAAAAAAAAAAAAAAAAAAAAAAAAAAAAAAAAAAAAAAAAAAAAAAAAAAAAAAAAAAAAAAAAAAAAAAAAAAAAAAAAAAAAAAAAAAAAAAAAAAAAAAAAAAAAAAAAAAAAAAAAAAAAAAAAAAAAAAAAAAAAAAAAAAAAAAAAAAAAAAAAAAAAAAAAAAAAAAAAAAAAAAAAAAAAAAAAAAAAAAAAAAAAAAAAAAAAAAAAAAAAAAAAAAAAAAAAAAAAAAAAAAAAAAAAAAAAAAAAAAAAAAAAAAAAAAAAAAAAAAAAAAAAAAAAAAAAAAAAAAAAAAAAAAAAAAAAAAAAAAAAAAAAAAAAAAAAAAAAAAAAAAAAAAAAAAAAAAAAAAAAAAAAAAAAAAAAAAAAAAAAAAAAAAAAAAAAAAAAAAAAAAAAAAAAAAAAAAAAAAAAAAAAAAAAAAAAAAAAAAAAAAAAAAAAAAAAAAAAAAAAAAAAAAAAAAAAAAAAAAAAAAAAAAAAAAAAAAAAAAAAAAAAAAAAAAAAAAAAAAAAAAAAAAAAAAAAAAAAAAAAAAAAAAAAAAAAAAAAAAAAAAAAAAAAAAAAAAAAAAAAAAAAAAAAAAAAAAAAAAAAAAAAAAAAAAAAAAAAAAAAAAAAAAAAAAAAAAAAAAAAAAAAAAAAAAAAAAAAAAAAAAAAAAAAAAAAAAAAAAAAAAAAAAAAAAAAAAAAAAAAAAAAAAAAAAAAAAAAAAAAAAAAAAAAAAAAAAAAAAAAAAAAAAAAAAAAAAAAAAAAAAAAAAAAAAAAAAAAAAAAAAAAAAAAAAAAAAAAAAAAAAAAAAAAAAAAAAAAAAAAAAAAAAAAAAAAAAAAAAAAAAAAAAAAAAAAAAAAAAAAAAAAAAAAAAAAAAAAAAAAAAAAAAAAAAAAAAAAAAAAAAAAAAAAAAAAAAAAAAAAAAAAAAAAAAAAAAAAAAAAAAAAAAAAAAAAAAAAAAAAAAAAAAAAAAAAAAAAAAAAAAAAAAAAAAAAAAAAAAAAAAAAAAAAAAAAAAAAAAAAAAAAAAAAAAAAAAAAAAAAAAAAAAAAAAAAAAAAAAAAAAAAAAAAAAAAAAAAAAAAAAAAAAAAAAAAAAAAAAAAAAAAAAAAAAAAAAAAAAAAAAAAAAAAAAAAAAAAAAAAAAAAAAAAAAAAAAAAAAAAAAAAAAAAAAAAAAAAAAAAAAAAAAAAAAAAAAAAAAAAAAAAAAAAAAAAAAAAAAAAAAAAAAAAAAAAAAAAAAAAAAAAAAAAAAAAAAAAAAAAAAAAAAAAAAAAAAAAAAAAAAAAAAAAAAAAAAAAAAAAAAAAAAAAAAAAAAAAAAAAAAAAAAAAAAAAAAAAAAAAAAAAAAAAAAAAAAAAAAAAAAAAAAAAAAAAAAAAAAAAAAAAAAAAAAAAAAAAAAAAAAAAAAAAAAAAAAAAAAAAAAAAAAAAAAAAAAAAAAAAAAAAAAAAAAAAAAAAAAAAAAAAAAAAAAAAAAAAAAAAAAAAAAAAAAAAAAAAAAAAAAAAAAAAAAAAAAAAAAAAAAAAAAAAAAAAAAAAAAAAAAAAAAAAAAAAAAAAAAAAAAAAAAAAAAAAAAAAAAAAAAAAAAAAAAAAAAAAAAAAAAAAAAAAAAAAAAAAAAAAAAAAAAAAAAAAAAAAAAAAAAAAAAAAAAAAAAAAAAAAAAAAAAAAAAAAAAAAAAAAAAAAAAAAAAAAAAAAAAAAAAAAAAAAAAAAAAAAAAAAAAAAAAAAAAAAAAAAAAAAAAAAAAAAAAAAAAAAAAAAAAAAAAAAAAAAAAAAAAAAAAAAAAAAAAAAAAAAAAAAAAAAAAAAAAAAAAAAAAAAAAAAAAAAAAAAAAAAAAAAAAAAAAAAAAAAAAAAAAAAAAAAAAAAAAAAAAAAAAAAAAAAAAAAAAAAAAAAAAAAAAAAAAAAAAAAAAAAAAAAAAAAAAAAAAAAAAAAAAAAAAAAAAAAAAAAAAAAAAAAAAAAAAAAAAAAAAAAAAAAAAAAAAAAAAAAAAAAAAAAAAAAAAAAAAAAAAAAAAAAAAAAAAAAAAAAAAAAAAAAAAAAAAAAAAAAAAAAAAAAAAAAAAAAAAAAAAAAAAAAAAAAAAAAAAAAAAAAAAAAAAAAAAAAAAAAAAAAAAAAAAAAAAAAAAAAAAAAAAAAAAAAAAAAAAAAAAAAAAAAAAAAAAAAAAAAAAAAAAAAAAAAAAAAAAAAAAAAAAAAAAAAAAAAAAAAAAAAAAAAAAAAAAAAAAAAAAAAAAAAAAAAAAAAAAAAAAAAAAAAAAAAAAAAAAAAAAAAAAAAAAAAAAAAAAAAAAAAAAAAAAAAAAAAAAAAAAAAAAAAAAAAAAAAAAAAAAAAAAAAAAAAAAAAAAAAAAAAAAAAAAAAAAAAAAAAAAAAAAAAAAAAAAAAAAAAAAAAAAAAAAAAAAAAAAAAAAAAAAAAAAAAAAAAAAAAAAAAAAAAAAAAAAAAAAAAAAAAAAAAAAAAAAAAAAAAAAAAAAAAAAAAAAAAAAAAAAAAAAAAAAAAAAAAAAAAAAAAAAAAAAAAAAAAAAAAAAAAAAAAAAAAAAAAAAAAAAAAAAAAAAAAAAAAAAAAAAAAAAAAAAAAAAAAAAAAAAAAAAAAAAAAAAAAAAAAAAAAAAAAAAAAAAAAAAAAAAAAAAAAAAAAAAAAAAAAAAAAAAAAAAAAAAAAAAAAAAAAAAAAAAAAAAAAAAAAAAAAAAAAAAAAAAAAAAAAAAAAAAAAAAAAAAAAAAAAAAAAAAAAAAAAAAAAAAAAAAAAAAAAAAAAAAAAAAAAAAAAAAAAAAAAAAAAAAAAAAAAAAAAAAAAAAAAAAAAAAAAAAAAAAAAAAAAAAAAAAAAAAAAAAAAAAAAAAAAAAAAAAAAAAAAAAAAAAAAAAAAAAAAAAAAAAAAAAAAAAAAAAAAAAAAAAAAAAAAAAAAAAAAAAAAAAAAAAAAAAAAAAAAAAAAAAAAAAAAAAAAAAAAAAAAAAAAAAAAAAAAAAAAAAAAAAAAAAAAAAAAAAAAAAAAAAAAAAAAAAAAAAAAAAAAAAAAAAAAAAAAAAAAAAAAAAAAAAAAAAAAAAAAAAAAAAAAAAAAAAAAAAAAAAAAAAAAAAAAAAAAAAAAAAAAAAAAAAAAAAAAAAAAAAAAAAAAAAAAAAAAAAAAAAAAAAAAAAAAAAAAAAAAAAAAAAAAAAAAAAAAAAAAAAAAAAAAAAAAAAAAAAAAAAAAAAAAAAAAAAAAAAAAAAAAAAAAAAAAAAAAAAAAAAAAAAAAAAAAAAAAAAAAAAAAAAAAAAAAAAAAAAAAAAAAAAAAAAAAAAAAAAAAAAAAAAAAAAAAAAAAAAAAAAAAAAAAAAAAAAAAAAAAAAAAAAAAAAAAAAAAAAAAAAAAAAAAAAAAAAAAAAAAAAAAAAAAAAAAAAAAAAAAAAAAAAAAAAAAAAAAAAAAAAAAAAAAAAAAAAAAAAAAAAAAAAAAAAAAAAAAAAAAAAAAAAAAAAAAAAAAAAAAAAAAAAAAAAAAAAAAAAAAAAAAAAAAAAAAAAAAAAAAAAAAAAAAAAAAAAAAAAAAAAAAAAAAAAAAAAAAAAAAAAAAAAAAAAAAAAAAAAAAAAAAAAAAAAAAAAAAAAAAAAAAAAAAAAAAAAAAAAAAAAAAAAAAAAAAAAAAAAAAAAAAAAAAAAAAAAAAAAAAAAAAAAAAAAAAAAAAAAAAAAAAAAAAAAAAAAAAAAAAAAAAAAAAAAAAAAAAAAAAAAAAAAAAAAAAAAAAAAAAAAAAAAAAAAAAAAAAAAAAAAAAAAAAAAAAAAAAAAAAAAAAAAAAAAAAAAAAAAAAAAAAAAAAAAAAAAAAAAAAAAAAAAAAAAAAAAAAAAAAAAAAAAAAAAAAAAAAAAAAAAAAAAAAAAAAAAAAAAAAAAAAAAAAAAAAAAAAAAAAAAAAAAAAAAAAAAAAAAAAAAAAAAAAAAAAAAAAAAAAAAAAAAAAAAAAAAAAAAAAAAAAAAAAAAAAAAAAAAAAAAAAAAAAAAAAAAAAAAAAAAAAAAAAAAAAAAAAAAAAAAAAAAAAAAAAAAAAAAAAAAAAAAAAAAAAAAAAAAAAAAAAAAAAAAAAAAAAAAAAAAAAAAAAAAAAAAAAAAAAAAAAAAAAAAAAAAAAAAAAAAAAAAAAAAAAAAAAAAAAAAAAAAAAAAAAAAAAAAAAAAAAAAAAAAPZYQCszldXIMGv+M3rzzZ/DsPEqAEAG+iC/WcEOBdGzxC7EtukOyOnw5Po2PK4+Vm4jo3ch5IK99yFrVZuOh8p66FY=</c2pa:manifest></metadata><defs>
    <path id="btcCoin" d="M63.04 39.741c-4.274 17.143-21.638 27.575-38.783 23.301C7.12 58.768-3.313 41.404.962 24.262 5.234 7.117 22.597-3.317 39.737.957c17.144 4.274 27.576 21.64 23.302 38.784z"></path>
    <path id="btcGlyph" d="M46.11 27.441c.636-4.258-2.606-6.547-7.039-8.074l1.438-5.768-3.512-.875-1.4 5.616c-.922-.23-1.87-.447-2.812-.662l1.41-5.653-3.509-.875-1.439 5.766c-.764-.174-1.514-.346-2.242-.527l.004-.018-4.842-1.209-.934 3.75s2.605.597 2.55.634c1.422.355 1.68 1.296 1.636 2.042l-1.638 6.571c.098.025.225.061.365.117l-.37-.092-2.297 9.205c-.174.432-.615 1.08-1.609.834.035.051-2.552-.637-2.552-.637l-1.743 4.019 4.57 1.139c.85.213 1.683.436 2.502.646l-1.453 5.835 3.507.875 1.44-5.772c.957.26 1.887.5 2.797.726L27.504 50.8l3.511.875 1.453-5.823c5.987 1.133 10.49.676 12.384-4.739 1.527-4.36-.075-6.875-3.226-8.516 2.294-.531 4.022-2.04 4.483-5.157zM38.087 38.69c-1.086 4.36-8.426 2.004-10.807 1.412l1.928-7.729c2.38.594 10.011 1.77 8.88 6.317zm1.085-11.312c-.99 3.966-7.1 1.951-9.083 1.457l1.748-7.01c1.983.494 8.367 1.416 7.335 5.553z"></path>
    <linearGradient id="gShine" x1="0" y1="0" x2="0" y2="1"><stop offset="0" stop-color="#fff" stop-opacity=".16"></stop><stop offset=".5" stop-color="#fff" stop-opacity="0"></stop></linearGradient>
    <linearGradient id="gLip" x1="0" y1="0" x2="0" y2="1"><stop offset="0" stop-color="#000" stop-opacity=".06"></stop><stop offset=".45" stop-color="#000" stop-opacity=".01"></stop><stop offset=".6" stop-color="#000" stop-opacity="0"></stop><stop offset="1" stop-color="#000" stop-opacity="0"></stop></linearGradient>
    <clipPath id="cpCoin"><circle cx="32" cy="32" r="32"></circle></clipPath>
    <g id="btcEngraved">
      <circle cx="32" cy="32" r="33.4" fill="none" stroke="url(#gLip)" stroke-width="1.4"></circle>
      
      <path d="M63.04 39.741c-4.274 17.143-21.638 27.575-38.783 23.301C7.12 58.768-3.313 41.404.962 24.262 5.234 7.117 22.597-3.317 39.737.957c17.144 4.274 27.576 21.64 23.302 38.784z" fill="#F7931A"></path>
      <g clip-path="url(#cpCoin)">
        <path d="M0 32a32 32 0 1 0 64 0a32 32 0 1 0 -64 0zM0 34.6a32 32 0 1 0 64 0a32 32 0 1 0 -64 0z" fill="#6B3200" fill-opacity=".05" fill-rule="evenodd"></path>
        <path d="M0 32a32 32 0 1 0 64 0a32 32 0 1 0 -64 0zM0 33.4a32 32 0 1 0 64 0a32 32 0 1 0 -64 0z" fill="#6B3200" fill-opacity=".06" fill-rule="evenodd"></path>
        <path d="M0 32a32 32 0 1 0 64 0a32 32 0 1 0 -64 0zM0 30.4a32 32 0 1 0 64 0a32 32 0 1 0 -64 0z" fill="#FFFFFF" fill-opacity=".08" fill-rule="evenodd"></path>
      </g>
      <path d="M46.11 27.441c.636-4.258-2.606-6.547-7.039-8.074l1.438-5.768-3.512-.875-1.4 5.616c-.922-.23-1.87-.447-2.812-.662l1.41-5.653-3.509-.875-1.439 5.766c-.764-.174-1.514-.346-2.242-.527l.004-.018-4.842-1.209-.934 3.75s2.605.597 2.55.634c1.422.355 1.68 1.296 1.636 2.042l-1.638 6.571c.098.025.225.061.365.117l-.37-.092-2.297 9.205c-.174.432-.615 1.08-1.609.834.035.051-2.552-.637-2.552-.637l-1.743 4.019 4.57 1.139c.85.213 1.683.436 2.502.646l-1.453 5.835 3.507.875 1.44-5.772c.957.26 1.887.5 2.797.726L27.504 50.8l3.511.875 1.453-5.823c5.987 1.133 10.49.676 12.384-4.739 1.527-4.36-.075-6.875-3.226-8.516 2.294-.531 4.022-2.04 4.483-5.157zM38.087 38.69c-1.086 4.36-8.426 2.004-10.807 1.412l1.928-7.729c2.38.594 10.011 1.77 8.88 6.317zm1.085-11.312c-.99 3.966-7.1 1.951-9.083 1.457l1.748-7.01c1.983.494 8.367 1.416 7.335 5.553z" fill="#E07F0A" transform="translate(0 -0.4)"></path>
      <path d="M46.11 27.441c.636-4.258-2.606-6.547-7.039-8.074l1.438-5.768-3.512-.875-1.4 5.616c-.922-.23-1.87-.447-2.812-.662l1.41-5.653-3.509-.875-1.439 5.766c-.764-.174-1.514-.346-2.242-.527l.004-.018-4.842-1.209-.934 3.75s2.605.597 2.55.634c1.422.355 1.68 1.296 1.636 2.042l-1.638 6.571c.098.025.225.061.365.117l-.37-.092-2.297 9.205c-.174.432-.615 1.08-1.609.834.035.051-2.552-.637-2.552-.637l-1.743 4.019 4.57 1.139c.85.213 1.683.436 2.502.646l-1.453 5.835 3.507.875 1.44-5.772c.957.26 1.887.5 2.797.726L27.504 50.8l3.511.875 1.453-5.823c5.987 1.133 10.49.676 12.384-4.739 1.527-4.36-.075-6.875-3.226-8.516 2.294-.531 4.022-2.04 4.483-5.157zM38.087 38.69c-1.086 4.36-8.426 2.004-10.807 1.412l1.928-7.729c2.38.594 10.011 1.77 8.88 6.317zm1.085-11.312c-.99 3.966-7.1 1.951-9.083 1.457l1.748-7.01c1.983.494 8.367 1.416 7.335 5.553z" fill="#FBB65E" transform="translate(0 0.35)"></path>
      <path d="M46.11 27.441c.636-4.258-2.606-6.547-7.039-8.074l1.438-5.768-3.512-.875-1.4 5.616c-.922-.23-1.87-.447-2.812-.662l1.41-5.653-3.509-.875-1.439 5.766c-.764-.174-1.514-.346-2.242-.527l.004-.018-4.842-1.209-.934 3.75s2.605.597 2.55.634c1.422.355 1.68 1.296 1.636 2.042l-1.638 6.571c.098.025.225.061.365.117l-.37-.092-2.297 9.205c-.174.432-.615 1.08-1.609.834.035.051-2.552-.637-2.552-.637l-1.743 4.019 4.57 1.139c.85.213 1.683.436 2.502.646l-1.453 5.835 3.507.875 1.44-5.772c.957.26 1.887.5 2.797.726L27.504 50.8l3.511.875 1.453-5.823c5.987 1.133 10.49.676 12.384-4.739 1.527-4.36-.075-6.875-3.226-8.516 2.294-.531 4.022-2.04 4.483-5.157zM38.087 38.69c-1.086 4.36-8.426 2.004-10.807 1.412l1.928-7.729c2.38.594 10.011 1.77 8.88 6.317zm1.085-11.312c-.99 3.966-7.1 1.951-9.083 1.457l1.748-7.01c1.983.494 8.367 1.416 7.335 5.553z" fill="#FFFFFF"></path>
    </g>
  </defs><mask id="mk"><rect width="100" height="100" fill="#fff"></rect><circle cx="74" cy="74" r="18.5" fill="#000"></circle></mask><g mask="url(#mk)"><use href="#btcEngraved" transform="translate(17 17) scale(1.03)"></use></g><circle cx="74" cy="74" r="16" fill="#121211"></circle><svg x="64.08" y="64.08" width="19.84" height="19.84" viewBox="0 0 24 24" overflow="visible"><path d="M9 14L4 9l5-5M4 9h10.5a5.5 5.5 0 0 1 0 11H11" fill="none" stroke="#FFFFFF" stroke-width="3" stroke-linecap="round" stroke-linejoin="round"></path></svg></svg>